<?xml version="1.0" encoding="utf-8"?>
<!-- Generator: Adobe Illustrator 15.0.2, SVG Export Plug-In . SVG Version: 6.00 Build 0)  -->
<!DOCTYPE svg PUBLIC "-//W3C//DTD SVG 1.1//EN" "http://www.w3.org/Graphics/SVG/1.1/DTD/svg11.dtd">
<svg version="1.1" id="Layer_1" xmlns="http://www.w3.org/2000/svg" xmlns:xlink="http://www.w3.org/1999/xlink" x="0px" y="0px"
	 width="443.52px" height="337.68px" viewBox="0 0 443.52 337.68" enable-background="new 0 0 443.52 337.68" xml:space="preserve">
<pattern  x="-11.74" y="493.34" width="54" height="54" patternUnits="userSpaceOnUse" id="SVGID_1_" viewBox="0 -54 54 54" overflow="visible">
	<g>
		<polygon fill="none" points="0,0 54,0 54,-54 0,-54 		"/>
		<g>
			<polygon fill="none" points="0,-54 54,-54 54,0 0,0 			"/>
			<polygon fill="#6B6B6B" points="54,-54 0,-54 0,0 54,0 			"/>
		</g>
	</g>
</pattern>
<pattern  x="-11.74" y="493.34" width="54" height="54" patternUnits="userSpaceOnUse" id="SVGID_10_" viewBox="0 -54 54 54" overflow="visible">
	<g>
		<polygon fill="none" points="0,0 54,0 54,-54 0,-54 		"/>
		<g>
			<polygon fill="none" points="0,-54 54,-54 54,0 0,0 			"/>
			<polygon fill="#6B6B6B" points="54,-54 0,-54 0,0 54,0 			"/>
		</g>
	</g>
</pattern>
<pattern  x="-11.74" y="493.34" width="54" height="54" patternUnits="userSpaceOnUse" id="SVGID_11_" viewBox="0 -54 54 54" overflow="visible">
	<g>
		<polygon fill="none" points="0,0 54,0 54,-54 0,-54 		"/>
		<g>
			<polygon fill="none" points="0,-54 54,-54 54,0 0,0 			"/>
			<polygon fill="#6B6B6B" points="54,-54 0,-54 0,0 54,0 			"/>
		</g>
	</g>
</pattern>
<pattern  x="-11.74" y="493.34" width="54" height="54" patternUnits="userSpaceOnUse" id="SVGID_12_" viewBox="0 -54 54 54" overflow="visible">
	<g>
		<polygon fill="none" points="0,0 54,0 54,-54 0,-54 		"/>
		<g>
			<polygon fill="none" points="0,-54 54,-54 54,0 0,0 			"/>
			<polygon fill="#6B6B6B" points="54,-54 0,-54 0,0 54,0 			"/>
		</g>
	</g>
</pattern>
<pattern  x="-11.74" y="493.34" width="54" height="54" patternUnits="userSpaceOnUse" id="SVGID_13_" viewBox="0 -54 54 54" overflow="visible">
	<g>
		<polygon fill="none" points="0,0 54,0 54,-54 0,-54 		"/>
		<g>
			<polygon fill="none" points="0,-54 54,-54 54,0 0,0 			"/>
			<polygon fill="#6B6B6B" points="54,-54 0,-54 0,0 54,0 			"/>
		</g>
	</g>
</pattern>
<pattern  x="-11.74" y="493.34" width="54" height="54" patternUnits="userSpaceOnUse" id="SVGID_14_" viewBox="0 -54 54 54" overflow="visible">
	<g>
		<polygon fill="none" points="0,0 54,0 54,-54 0,-54 		"/>
		<g>
			<polygon fill="none" points="0,-54 54,-54 54,0 0,0 			"/>
			<polygon fill="#6B6B6B" points="54,-54 0,-54 0,0 54,0 			"/>
		</g>
	</g>
</pattern>
<pattern  x="-11.74" y="493.34" width="54" height="54" patternUnits="userSpaceOnUse" id="SVGID_2_" viewBox="0 -54 54 54" overflow="visible">
	<g>
		<polygon fill="none" points="0,0 54,0 54,-54 0,-54 		"/>
		<g>
			<polygon fill="none" points="0,-54 54,-54 54,0 0,0 			"/>
			<polygon fill="#6B6B6B" points="54,-54 0,-54 0,0 54,0 			"/>
		</g>
	</g>
</pattern>
<pattern  x="-11.74" y="493.34" width="54" height="54" patternUnits="userSpaceOnUse" id="SVGID_3_" viewBox="0 -54 54 54" overflow="visible">
	<g>
		<polygon fill="none" points="0,0 54,0 54,-54 0,-54 		"/>
		<g>
			<polygon fill="none" points="0,-54 54,-54 54,0 0,0 			"/>
			<polygon fill="#6B6B6B" points="54,-54 0,-54 0,0 54,0 			"/>
		</g>
	</g>
</pattern>
<pattern  x="-11.74" y="493.34" width="54" height="54" patternUnits="userSpaceOnUse" id="SVGID_4_" viewBox="0 -54 54 54" overflow="visible">
	<g>
		<polygon fill="none" points="0,0 54,0 54,-54 0,-54 		"/>
		<g>
			<polygon fill="none" points="0,-54 54,-54 54,0 0,0 			"/>
			<polygon fill="#6B6B6B" points="54,-54 0,-54 0,0 54,0 			"/>
		</g>
	</g>
</pattern>
<pattern  x="-11.74" y="493.34" width="54" height="54" patternUnits="userSpaceOnUse" id="SVGID_5_" viewBox="0 -54 54 54" overflow="visible">
	<g>
		<polygon fill="none" points="0,0 54,0 54,-54 0,-54 		"/>
		<g>
			<polygon fill="none" points="0,-54 54,-54 54,0 0,0 			"/>
			<polygon fill="#6B6B6B" points="54,-54 0,-54 0,0 54,0 			"/>
		</g>
	</g>
</pattern>
<pattern  x="-11.74" y="493.34" width="54" height="54" patternUnits="userSpaceOnUse" id="SVGID_6_" viewBox="0 -54 54 54" overflow="visible">
	<g>
		<polygon fill="none" points="0,0 54,0 54,-54 0,-54 		"/>
		<g>
			<polygon fill="none" points="0,-54 54,-54 54,0 0,0 			"/>
			<polygon fill="#6B6B6B" points="54,-54 0,-54 0,0 54,0 			"/>
		</g>
	</g>
</pattern>
<pattern  x="-11.74" y="493.34" width="54" height="54" patternUnits="userSpaceOnUse" id="SVGID_7_" viewBox="0 -54 54 54" overflow="visible">
	<g>
		<polygon fill="none" points="0,0 54,0 54,-54 0,-54 		"/>
		<g>
			<polygon fill="none" points="0,-54 54,-54 54,0 0,0 			"/>
			<polygon fill="#6B6B6B" points="54,-54 0,-54 0,0 54,0 			"/>
		</g>
	</g>
</pattern>
<pattern  x="-11.74" y="493.34" width="54" height="54" patternUnits="userSpaceOnUse" id="SVGID_8_" viewBox="0 -54 54 54" overflow="visible">
	<g>
		<polygon fill="none" points="0,0 54,0 54,-54 0,-54 		"/>
		<g>
			<polygon fill="none" points="0,-54 54,-54 54,0 0,0 			"/>
			<polygon fill="#6B6B6B" points="54,-54 0,-54 0,0 54,0 			"/>
		</g>
	</g>
</pattern>
<pattern  x="-11.74" y="493.34" width="54" height="54" patternUnits="userSpaceOnUse" id="SVGID_9_" viewBox="0 -54 54 54" overflow="visible">
	<g>
		<polygon fill="none" points="0,0 54,0 54,-54 0,-54 		"/>
		<g>
			<polygon fill="none" points="0,-54 54,-54 54,0 0,0 			"/>
			<polygon fill="#6B6B6B" points="54,-54 0,-54 0,0 54,0 			"/>
		</g>
	</g>
</pattern>
<circle fill="#FFFFFF" cx="221.76" cy="168.84" r="167.341"/>
<polygon fill="#8CC640" points="293.101,187.948 406.87,307.425 218.906,248.448 "/>
<polygon fill="#8CC640" points="153.3,10.672 195.361,191.849 206.139,184.838 251.975,191.31 266.536,158.958 "/>
<path fill="#333333" d="M267.374,155.347c20.653-42.289,40.966-86.047,62.278-128.424c1.169-2.318,1.792-7.124,5.81-6.777
	c2.554,3.259,0.688,7.569,0.316,10.967c-5.941,54.162-11.91,109.039-17.738,164.24c-0.396,3.871-1.838,8.85-1.29,11.617
	c0.693,3.563,8.805,10.098,11.935,13.228c21.146,21.143,39.122,42.34,60.658,63.894c5.53,5.52,12.021,12.329,18.397,19.032
	c1.86,1.966,5.53,4.97,4.521,7.104c-1.533,3.193-22.398,1.617-27.433,1.617c-58.354,0-113.633,0.951-171.657,0.951
	c-9.757,0-20.084-1.173-28.719,0c-5.11,0.709-10.838,3.637-16.462,5.488c-14.16,4.693-25.926,8.257-41.299,13.237
	c-7.494,2.422-8.802,3.225-10.968-4.516c-0.791-2.854-1.295-4.092-1.931-7.433c-8.007,3.785-12.323-6.65-15.809-11.281
	c-1.494-1.987-3.172-3.574-4.839-5.815c-1.341-1.817-4.166-5.212-4.19-6.449c-0.097-4.812,9.881-8.475,10.645-12.899
	c0.486-2.791-1.648-10.245-2.258-13.878c-5.22-31.074-11.709-64.295-16.457-94.864c-11.931,4.292-24.963,9.825-37.435,15.162
	c-3.773,1.624-8,5.139-12.262,3.237c-0.719-3.491,2.634-5.939,4.514-8.396c11.562-15.112,23.334-30.097,35.498-45.817
	c1.722-2.23,4.168-7.004,6.127-7.422c1.808-0.388,6.238,1.445,8.388,1.933c6.354,1.457,10.393,2.458,16.78,3.873
	c2.892,0.643,6.28,0.622,8.392,1.612c2.82,1.327,6.96,8.364,9.03,10.972c3.183,4.001,6.111,7.628,9.03,10.645
	c7.476-51.473,13.933-103.955,21.938-154.88c3.341-3.37,6.88,4.405,9.36,7.743C195,59.844,233.244,109.846,267.374,155.347z
	 M196.064,188.578c4.19-0.631,5.924-7.107,10.647-7.75c2.566-0.341,7.319,1.281,10.975,1.938
	c11.128,2.003,23.531,4.313,33.237,6.132c4.581-9.288,9.156-18.584,13.552-28.078c-35.567-48.331-71.576-96.214-107.776-143.907
	C169.717,74.238,183.182,131.127,196.064,188.578z M148.314,56.93c-4.179,30.533-8.543,60.111-12.592,90.67
	c-0.547,4.147-3.027,14.793-2.252,18.389c0.34,1.618,2.982,3.88,4.516,5.811c11.172,14.066,21.265,27.26,32.268,40.014
	c7.791-6.842,15.895-13.354,23.229-20.653c-13.706-56.748-26.017-114.882-40.01-171.339C152.26,31.779,150.082,43.98,148.314,56.93z
	 M250.923,200.846c4.631,2.022,9.317,4.02,14.193,5.808c6.911-5.401,13.677-11.173,20.653-17.11c1.544-1.311,5.546-5.326,7.741-5.16
	c1.88,0.159,3.239,2.753,4.846,4.521c3.295,3.64,6.209,6.209,9.354,9.359c1.436,1.425,2.66,3.938,4.525,3.547
	c5.507-54.726,12.489-109.688,17.423-163.92C303.667,92.459,277.034,146.397,250.923,200.846z M78.941,136.634
	c-10.743,13.674-21.282,27.554-31.952,41.297c9.302-7.681,19.25-15.758,28.719-23.878c3.129-2.686,6.317-6.783,9.685-8.065
	c6.062-2.308,12.964-0.996,20.001-3.232C96.685,140.607,87.737,138.69,78.941,136.634z M109.91,145.668
	c-7.211,1.168-14.665,2.107-21.94,3.232c10.235,58.483,21.527,115.932,31.944,174.232c19.775-30.562,38.819-61.848,57.756-93.251
	C155.139,201.766,133.047,173.189,109.91,145.668z M66.028,166.314c-6.323,5.376-12.83,10.794-18.064,16.131
	c0.017-0.201,0.047-0.379,0.32-0.319c5.869-2.593,11.779-4.908,17.745-7.434c5.744-2.423,11.515-6.028,18.07-6.451
	c2.273,5.609,2.814,11.812,3.867,17.747c7.037,39.654,14.76,80.669,21.939,119.704c0.526,2.876,0.298,6.29,2.262,8.712
	c4.082-0.645,1.431-5.899,0.959-8.395c-9.607-51.387-18.916-104.244-28.39-154.872C78.604,155.461,72.32,160.968,66.028,166.314z
	 M246.085,198.908c0.605-1.809,2.527-3.838,2.245-5.486c-8.84-1.053-17.803-3.701-26.129-4.188
	C230.342,192.271,238.05,195.747,246.085,198.908z M173.475,216.328c2.63,3.064,4.873,6.522,7.745,9.361
	c7.034-11.795,14.354-23.298,21.617-34.854c0.076-0.4,0.505-0.653-0.32-0.639C193.203,199.271,182.586,207.044,173.475,216.328z
	 M221.227,242.792c12.571-10.029,26.741-21.242,39.045-32.592c-16.314-6.385-31.969-13.419-48.395-19.687
	C214.857,208.08,217.957,225.526,221.227,242.792z M292.866,190.519c-23.147,19.232-46.681,38.075-69.372,57.762
	c59.573,18.397,118.45,37.501,177.786,56.143C366.305,266.572,329.099,228.159,292.866,190.519z M128.629,319.269
	c0.991,0.444,1.689-0.837,2.251-1.303c25.807-20.691,50.839-41.721,76.151-63.236c3.038-2.596,10.399-6.814,10.975-9.696
	c0.492-2.441-1.57-9.282-2.263-13.227c-2.2-12.518-5.194-30.677-7.743-40C181.704,234.448,155.257,276.945,128.629,319.269z
	 M203.167,279.894c-4.309,7.115-8.591,14.168-12.586,20.967c-1.406,2.41-3.354,4.842-3.23,6.788
	c69.823-0.307,139.856-0.413,209.093-1.301c-58.686-18.334-116.941-37.08-175.532-55.499
	C214.872,259.836,209.095,270.093,203.167,279.894z M170.898,291.186c-12.651,10.499-25.514,21.336-37.754,31.624
	c-0.502,0.423-1.835,0.89-1.612,1.936c16.866-5.508,33.487-11.248,50.658-16.452c10.145-16.969,20.492-33.728,30.332-50.994
	c0.34,0,0.253-0.411-0.326-0.316C199.168,268.538,184.73,279.703,170.898,291.186z M95.395,296.662
	c2.757,3.706,5.533,7.369,8.382,10.986c-0.986-5.794-1.507-12.044-3.218-17.108C98.917,292.665,96.772,294.294,95.395,296.662z"/>
<g>
	<pattern  id="SVGID_15_" xlink:href="#SVGID_1_" patternTransform="matrix(1.3182 0 0 -1.3182 4772.8516 -22522.9219)">
	</pattern>
	<path fill="#333333" stroke="url(#SVGID_15_)" stroke-width="0.5616" stroke-miterlimit="10" d="M-14.516,373.302h-10.057v-3.621
		H-0.09v3.621h-10.104v29.433h-4.322V373.302L-14.516,373.302z"/>
	<pattern  id="SVGID_16_" xlink:href="#SVGID_2_" patternTransform="matrix(1.3182 0 0 -1.3182 4772.8516 -22522.9219)">
	</pattern>
	<path fill="#333333" stroke="url(#SVGID_16_)" stroke-width="0.5616" stroke-miterlimit="10" d="M11.541,369.681v13.833h15.993
		v-13.833h4.312v33.054h-4.307v-15.5H11.54v15.5H7.228v-33.054H11.541z"/>
	<pattern  id="SVGID_17_" xlink:href="#SVGID_3_" patternTransform="matrix(1.3182 0 0 -1.3182 4772.8516 -22522.9219)">
	</pattern>
	<path fill="#333333" stroke="url(#SVGID_17_)" stroke-width="0.5616" stroke-miterlimit="10" d="M60.027,387.235h-12.8v11.926
		h14.327v3.574H42.905v-33.054h17.907v3.574H47.221v10.453h12.8v3.525L60.027,387.235L60.027,387.235z"/>
	<pattern  id="SVGID_18_" xlink:href="#SVGID_4_" patternTransform="matrix(1.3182 0 0 -1.3182 4772.8516 -22522.9219)">
	</pattern>
	<path fill="#333333" stroke="url(#SVGID_18_)" stroke-width="0.5616" stroke-miterlimit="10" d="M107.923,401.709
		c-1.521,0.784-4.711,1.568-8.734,1.568c-9.319,0-16.285-5.872-16.285-16.779c0-10.395,7.014-17.359,17.264-17.359
		c4.071,0,6.718,0.881,7.85,1.474l-1.078,3.47c-1.568-0.785-3.875-1.375-6.624-1.375c-7.751,0-12.899,4.961-12.899,13.641
		c0,8.144,4.66,13.285,12.657,13.285c2.654,0,5.298-0.53,7.015-1.363L107.923,401.709z"/>
	<pattern  id="SVGID_19_" xlink:href="#SVGID_5_" patternTransform="matrix(1.3182 0 0 -1.3182 4772.8516 -22522.9219)">
	</pattern>
	<path fill="#333333" stroke="url(#SVGID_19_)" stroke-width="0.5616" stroke-miterlimit="10" d="M117.001,370.115
		c2.158-0.387,5.3-0.688,8.197-0.688c4.563,0,7.554,0.881,9.562,2.703c1.62,1.474,2.599,3.725,2.599,6.325
		c0,4.312-2.746,7.209-6.181,8.393v0.145c2.501,0.882,4.022,3.229,4.807,6.671c1.081,4.61,1.865,7.804,2.554,9.071h-4.415
		c-0.537-0.979-1.271-3.768-2.155-7.896c-0.983-4.563-2.801-6.278-6.676-6.423h-4.023v14.317h-4.268L117.001,370.115
		L117.001,370.115z M121.276,385.181h4.369c4.561,0,7.452-2.511,7.452-6.289c0-4.263-3.091-6.12-7.603-6.12
		c-2.059,0-3.479,0.145-4.219,0.338L121.276,385.181L121.276,385.181z"/>
	<pattern  id="SVGID_20_" xlink:href="#SVGID_6_" patternTransform="matrix(1.3182 0 0 -1.3182 4772.8516 -22522.9219)">
	</pattern>
	<path fill="#333333" stroke="url(#SVGID_20_)" stroke-width="0.5616" stroke-miterlimit="10" d="M164.159,387.235H151.35v11.926
		h14.327v3.574h-18.639v-33.054h17.906v3.574H151.35v10.453h12.809V387.235z"/>
	<pattern  id="SVGID_21_" xlink:href="#SVGID_7_" patternTransform="matrix(1.3182 0 0 -1.3182 4772.8516 -22522.9219)">
	</pattern>
	<path fill="#333333" stroke="url(#SVGID_21_)" stroke-width="0.5616" stroke-miterlimit="10" d="M180.26,392.34l-3.438,10.395
		h-4.413l11.285-33.054h5.1l11.289,33.054h-4.564l-3.534-10.395H180.26z M191.149,389.007l-3.286-9.523
		c-0.737-2.16-1.226-4.117-1.715-6.035h-0.096c-0.489,1.918-0.983,3.971-1.669,5.986l-3.233,9.572H191.149z"/>
	<pattern  id="SVGID_22_" xlink:href="#SVGID_8_" patternTransform="matrix(1.3182 0 0 -1.3182 4772.8516 -22522.9219)">
	</pattern>
	<path fill="#333333" stroke="url(#SVGID_22_)" stroke-width="0.5616" stroke-miterlimit="10" d="M211.119,373.302h-10.05v-3.621
		h24.477v3.621H215.44v29.433h-4.321V373.302z"/>
	<pattern  id="SVGID_23_" xlink:href="#SVGID_9_" patternTransform="matrix(1.3182 0 0 -1.3182 4772.8516 -22522.9219)">
	</pattern>
	<path fill="#333333" stroke="url(#SVGID_23_)" stroke-width="0.5616" stroke-miterlimit="10" d="M237.181,369.681v33.054h-4.311
		v-33.054H237.181z"/>
	<pattern  id="SVGID_24_" xlink:href="#SVGID_10_" patternTransform="matrix(1.3182 0 0 -1.3182 4772.8516 -22522.9219)">
	</pattern>
	<path fill="#333333" stroke="url(#SVGID_24_)" stroke-width="0.5616" stroke-miterlimit="10" d="M255.587,402.735l-10.845-33.054
		h4.665l5.154,16.284c1.367,4.467,2.594,8.488,3.527,12.362h0.1c0.927-3.827,2.254-8.003,3.775-12.313l5.59-16.333h4.561
		l-11.819,33.054H255.587L255.587,402.735z"/>
	<pattern  id="SVGID_25_" xlink:href="#SVGID_11_" patternTransform="matrix(1.3182 0 0 -1.3182 4772.8516 -22522.9219)">
	</pattern>
	<path fill="#333333" stroke="url(#SVGID_25_)" stroke-width="0.5616" stroke-miterlimit="10" d="M296.461,387.235h-12.8v11.926
		h14.326v3.574H279.34v-33.054h17.904v3.574h-13.589v10.453h12.8v3.525L296.461,387.235L296.461,387.235z"/>
	<pattern  id="SVGID_26_" xlink:href="#SVGID_12_" patternTransform="matrix(1.3182 0 0 -1.3182 4772.8516 -22522.9219)">
	</pattern>
	<path fill="#333333" stroke="url(#SVGID_26_)" stroke-width="0.5616" stroke-miterlimit="10" d="M321.254,369.681h17.806v3.574
		h-13.488v10.984h12.457v3.537h-12.457v14.957h-4.316L321.254,369.681L321.254,369.681z"/>
	<pattern  id="SVGID_27_" xlink:href="#SVGID_13_" patternTransform="matrix(1.3182 0 0 -1.3182 4772.8516 -22522.9219)">
	</pattern>
	<path fill="#333333" stroke="url(#SVGID_27_)" stroke-width="0.5616" stroke-miterlimit="10" d="M365.954,387.235h-12.811v11.926
		h14.322v3.574h-18.639v-33.054h17.908v3.574h-13.592v10.453h12.809v3.526H365.954z"/>
	<pattern  id="SVGID_28_" xlink:href="#SVGID_14_" patternTransform="matrix(1.3182 0 0 -1.3182 4772.8516 -22522.9219)">
	</pattern>
	<path fill="#333333" stroke="url(#SVGID_28_)" stroke-width="0.5616" stroke-miterlimit="10" d="M382.544,402.735l-8.389-33.054
		h4.508l3.93,16.721c0.979,4.129,1.865,8.245,2.445,11.433h0.104c0.543-3.284,1.568-7.208,2.709-11.476l4.406-16.672h4.473
		l4.016,16.77c0.936,3.94,1.822,7.853,2.305,11.336h0.104c0.684-3.635,1.617-7.305,2.645-11.434l4.371-16.672h4.363l-9.369,33.06
		h-4.473l-4.17-17.215c-1.033-4.219-1.715-7.461-2.162-10.792h-0.096c-0.545,3.284-1.328,6.53-2.549,10.792l-4.719,17.215h-4.449
		v-0.012H382.544z"/>
</g>
</svg>
