<?xml version="1.0" standalone="no"?>
<!DOCTYPE svg PUBLIC "-//W3C//DTD SVG 20010904//EN"
 "http://www.w3.org/TR/2001/REC-SVG-20010904/DTD/svg10.dtd">
<svg version="1.0" xmlns="http://www.w3.org/2000/svg"
 width="888.000000pt" height="888.000000pt" viewBox="0 0 888.000000 888.000000"
 preserveAspectRatio="xMidYMid meet">
<metadata>
Created by potrace 1.11, written by Peter Selinger 2001-2013
</metadata>
<g transform="translate(0.000000,888.000000) scale(0.100000,-0.100000)"
fill="#000000" stroke="none">
<path d="M3241 7798 c-5 -13 -11 -52 -15 -87 -4 -36 -9 -67 -10 -70 -2 -3 -7
-33 -10 -66 -4 -33 -9 -69 -11 -80 -2 -11 -7 -38 -10 -60 -6 -42 -12 -80 -20
-130 -5 -26 -11 -71 -20 -140 -1 -11 -3 -20 -5 -20 -1 0 -3 -19 -5 -42 -1 -23
-6 -59 -10 -80 -7 -38 -9 -50 -19 -133 -3 -25 -7 -54 -10 -65 -2 -11 -7 -45
-10 -75 -4 -30 -8 -66 -10 -80 -2 -14 -7 -47 -11 -73 -4 -27 -8 -56 -10 -65
-3 -16 -9 -63 -20 -157 -3 -22 -8 -58 -12 -80 -7 -46 -9 -60 -18 -134 -3 -30
-8 -57 -9 -60 -2 -3 -7 -37 -10 -76 -4 -38 -9 -77 -11 -85 -2 -8 -7 -35 -9
-60 -3 -25 -8 -60 -11 -78 -9 -66 -16 -118 -20 -142 -2 -14 -6 -45 -10 -70 -3
-25 -8 -61 -11 -80 -9 -63 -15 -104 -19 -140 -3 -19 -10 -69 -16 -110 -6 -41
-12 -85 -14 -98 -5 -44 -11 -40 -80 43 -27 33 -52 62 -55 65 -4 3 -28 37 -55
75 -28 39 -58 79 -67 89 -10 11 -18 23 -18 27 0 14 -85 47 -135 54 -27 3 -68
11 -90 17 -22 5 -51 12 -65 15 -14 2 -43 9 -65 15 -22 5 -51 12 -65 14 -14 3
-34 8 -45 11 -11 4 -24 8 -30 9 -5 1 -37 9 -69 17 l-59 16 -31 -32 c-17 -18
-53 -64 -81 -102 -27 -39 -74 -101 -105 -140 -30 -38 -58 -74 -63 -80 -66 -86
-144 -187 -165 -214 -15 -19 -45 -58 -67 -86 -95 -124 -143 -185 -211 -270
-78 -97 -95 -138 -65 -155 25 -13 65 -4 141 32 61 28 79 36 163 72 187 81 474
197 494 200 7 1 16 5 19 9 25 24 36 -1 49 -110 2 -12 6 -34 9 -50 3 -15 8 -44
11 -63 3 -19 8 -48 11 -65 3 -16 7 -41 9 -55 2 -14 15 -90 29 -170 14 -80 28
-158 31 -175 12 -74 15 -92 20 -115 3 -14 7 -38 9 -55 2 -16 6 -41 9 -55 4
-14 9 -41 12 -60 4 -19 8 -46 11 -60 5 -27 6 -33 22 -125 6 -33 16 -87 22
-120 6 -33 13 -76 15 -95 3 -19 9 -55 15 -80 5 -25 11 -58 14 -75 2 -16 16
-94 31 -172 17 -86 25 -155 21 -175 -4 -24 -22 -47 -63 -83 -91 -79 -113 -105
-113 -134 0 -24 49 -99 111 -169 14 -16 49 -62 77 -103 62 -91 117 -148 146
-151 11 -1 38 -1 59 0 20 0 37 -3 38 -6 2 -18 8 -43 28 -110 23 -77 48 -112
81 -112 11 0 82 20 157 44 182 58 347 110 353 112 3 0 12 3 20 7 8 3 96 32
195 65 99 33 220 74 269 91 96 34 180 45 316 41 235 -7 3642 7 3696 15 46 7
66 27 55 57 -5 15 -104 119 -446 473 -205 212 -316 329 -410 430 -55 59 -116
125 -135 145 -19 21 -78 84 -130 140 -52 57 -190 199 -306 316 -190 190 -233
243 -229 279 4 37 18 144 21 160 3 19 8 57 20 170 3 28 7 66 9 85 6 50 13 114
20 195 4 39 8 81 10 95 2 14 7 50 10 80 3 30 7 71 10 90 2 19 7 64 10 100 3
36 8 83 11 105 3 22 7 56 9 75 6 66 16 165 20 190 2 14 6 59 10 100 4 41 8 86
10 100 2 14 6 50 10 80 3 30 10 94 16 141 6 47 9 90 8 95 -1 5 0 11 1 14 4 11
8 39 14 110 3 41 8 86 10 100 3 14 7 52 10 85 3 33 8 76 10 95 2 19 7 62 11
95 3 33 8 71 10 85 2 14 7 57 10 95 4 39 8 81 10 95 1 14 6 54 9 90 10 86 13
115 20 175 4 28 9 70 11 94 5 46 13 103 19 137 2 11 -2 34 -10 52 -24 58 -59
37 -104 -63 -15 -33 -102 -211 -193 -395 -156 -318 -257 -527 -278 -574 -5
-11 -13 -28 -18 -36 -6 -8 -33 -64 -62 -125 -28 -60 -83 -175 -121 -255 -39
-80 -91 -188 -115 -240 -25 -52 -92 -189 -147 -305 -56 -115 -113 -234 -126
-262 -13 -29 -26 -53 -29 -53 -3 0 -16 15 -28 33 -13 18 -31 42 -41 53 -9 10
-62 80 -117 154 -55 74 -105 142 -112 150 -7 8 -53 69 -102 135 -50 66 -94
125 -99 130 -4 6 -57 75 -117 155 -60 80 -113 150 -117 155 -5 6 -36 46 -69
90 -33 44 -68 91 -79 105 -91 120 -288 383 -300 401 -8 12 -20 27 -25 33 -6 6
-24 29 -40 51 -17 22 -35 46 -42 55 -6 8 -47 62 -90 120 -43 58 -83 111 -90
118 -7 7 -13 17 -13 21 0 4 -8 16 -18 27 -10 10 -31 37 -47 59 -17 22 -33 44
-38 50 -4 5 -27 37 -52 70 -24 33 -48 65 -53 70 -4 6 -21 28 -37 50 -17 22
-33 44 -38 50 -32 42 -109 149 -137 190 -58 85 -102 108 -119 63z m64 -328 c9
-36 17 -72 19 -80 9 -35 38 -156 41 -170 1 -8 8 -33 13 -55 6 -22 13 -51 16
-65 3 -14 25 -110 50 -215 25 -104 55 -230 67 -280 11 -49 29 -126 40 -170 10
-44 21 -91 24 -105 6 -33 23 -110 29 -135 3 -11 23 -101 46 -200 22 -99 45
-196 50 -215 8 -31 47 -198 55 -240 2 -8 12 -54 24 -102 11 -48 23 -98 25
-110 2 -13 16 -72 31 -133 43 -179 79 -334 90 -385 1 -8 8 -35 15 -60 7 -25
14 -54 16 -65 2 -11 7 -39 12 -63 l9 -42 -86 -79 c-90 -83 -96 -88 -182 -161
-29 -25 -71 -61 -92 -80 l-39 -34 -27 30 c-33 38 -110 130 -133 158 -22 26
-21 25 -93 116 -33 41 -65 82 -72 90 -7 8 -44 56 -83 105 -39 50 -76 97 -83
105 -7 8 -28 35 -47 60 -19 24 -50 60 -67 80 -18 19 -33 44 -34 55 -1 27 2 94
6 114 1 9 6 36 10 61 11 71 14 93 20 120 3 14 8 45 10 70 3 25 8 56 10 70 3
14 7 48 10 75 3 28 8 61 11 75 2 14 7 45 9 70 3 25 7 56 10 70 3 14 8 45 11
70 9 88 23 195 30 235 2 10 6 37 9 60 3 22 8 51 10 65 3 14 7 48 10 75 3 28 7
59 9 71 2 12 7 45 11 75 7 60 13 101 20 139 2 14 7 50 10 80 3 30 8 62 10 70
2 8 6 35 9 60 6 53 11 90 27 190 6 41 12 84 13 95 3 23 16 108 22 145 2 14 7
45 10 70 9 70 11 81 19 135 8 49 12 85 14 134 2 36 8 23 26 -49z m3029 -287
c-1 -21 -5 -65 -9 -98 -7 -70 -11 -103 -20 -205 -3 -41 -8 -86 -10 -100 -2
-14 -6 -56 -10 -95 -3 -38 -7 -86 -10 -105 -2 -19 -7 -64 -10 -100 -4 -36 -9
-80 -11 -98 -6 -53 -17 -150 -28 -267 -3 -27 -8 -68 -10 -90 -13 -95 -17 -135
-22 -181 -2 -27 -6 -67 -8 -89 -3 -22 -7 -65 -10 -95 -3 -30 -9 -77 -12 -105
-4 -27 -8 -61 -9 -75 -1 -14 -6 -56 -11 -95 -4 -38 -8 -77 -9 -85 -1 -8 -5
-45 -9 -81 -9 -75 -14 -125 -20 -184 -8 -88 -18 -181 -22 -205 -2 -14 -6 -56
-10 -95 -3 -38 -7 -81 -9 -95 -3 -14 -8 -54 -11 -90 -4 -36 -7 -74 -9 -85 -1
-11 -3 -30 -4 -42 0 -13 -6 -23 -13 -23 -10 0 -183 172 -266 263 -36 41 -56
45 -92 20 -23 -16 -129 -101 -140 -113 -3 -3 -45 -39 -95 -80 -49 -41 -92 -78
-95 -81 -3 -3 -31 -25 -63 -49 -68 -51 -51 -53 -244 31 -29 12 -53 26 -53 29
0 4 18 42 39 86 21 43 70 144 109 224 38 80 115 237 169 350 169 346 183 376
183 387 0 6 3 13 8 15 7 3 82 152 82 163 0 3 18 40 39 83 72 139 281 575 281
583 0 5 5 9 12 9 6 0 9 3 6 6 -3 3 16 49 42 102 26 53 80 165 120 247 119 247
191 397 221 460 16 33 29 65 29 72 0 7 4 13 9 13 4 0 7 -17 5 -37z m-4259
-1675 c83 -17 233 -52 315 -73 8 -2 24 -4 35 -5 37 -2 -12 -22 -64 -26 -46 -4
-85 -8 -171 -18 -81 -9 -120 -31 -214 -121 -23 -22 -57 -53 -77 -70 -20 -16
-58 -49 -85 -72 -103 -88 -355 -293 -361 -293 -4 0 14 23 55 70 7 8 38 49 70
91 262 347 417 539 432 534 8 -4 38 -11 65 -17z m478 -165 c12 -15 81 -98 152
-184 143 -173 168 -204 244 -299 28 -36 59 -74 68 -85 10 -11 76 -94 147 -185
72 -91 133 -167 136 -170 21 -20 130 -162 130 -169 0 -5 4 -11 9 -13 11 -4
261 -318 261 -327 0 -3 -17 -34 -38 -69 -112 -187 -197 -328 -202 -332 -3 -3
-25 -39 -50 -80 -24 -41 -90 -151 -147 -243 -57 -92 -103 -172 -103 -178 0 -5
-7 -12 -15 -15 -8 -4 -15 -10 -15 -15 0 -5 -39 -72 -87 -149 -49 -77 -93 -148
-98 -158 -6 -9 -31 -48 -56 -87 -25 -38 -76 -118 -114 -178 -37 -59 -69 -106
-71 -105 -2 3 -27 129 -40 208 -15 82 -25 138 -28 156 -2 12 -7 37 -10 55 -3
19 -8 45 -11 59 -3 14 -12 63 -20 110 -8 47 -17 96 -20 110 -3 14 -10 52 -15
85 -6 33 -18 94 -26 135 -9 41 -17 89 -20 105 -2 17 -6 41 -9 55 -4 22 -11 59
-31 165 -3 17 -23 123 -45 237 -21 113 -41 221 -43 240 -3 18 -5 33 -6 33 -2
0 -6 20 -13 60 -3 17 -12 68 -21 115 -8 47 -18 100 -21 119 -3 19 -7 37 -9 40
-2 3 -7 29 -10 56 -4 28 -9 57 -11 65 -2 8 -6 31 -9 50 -3 19 -8 46 -11 60 -3
14 -9 51 -15 82 -6 32 -12 70 -15 85 -3 16 -7 42 -10 58 -3 17 -15 80 -26 140
-12 61 -23 121 -25 135 -2 14 -6 36 -9 50 -3 14 -7 41 -10 60 -3 19 -7 47 -10
61 -7 29 -16 25 130 44 11 2 38 6 60 9 22 4 58 9 80 12 21 2 40 6 42 7 1 2 16
4 33 5 24 2 37 -4 53 -25z m-448 -125 c4 -29 8 -60 10 -68 5 -19 35 -178 39
-205 4 -23 7 -40 42 -230 14 -77 28 -151 30 -165 3 -14 7 -36 10 -50 2 -14 7
-41 10 -60 3 -19 10 -55 16 -80 5 -25 11 -58 13 -73 2 -15 9 -54 15 -85 6 -31
13 -68 16 -82 2 -14 7 -41 11 -60 10 -56 11 -63 19 -110 4 -25 8 -49 10 -55 1
-5 9 -48 18 -95 8 -47 17 -96 20 -110 3 -14 8 -41 11 -60 3 -19 8 -44 10 -55
11 -56 14 -73 19 -105 3 -19 8 -46 11 -60 3 -14 7 -37 10 -52 2 -15 8 -51 14
-80 6 -29 13 -66 16 -83 3 -16 7 -41 10 -55 3 -14 8 -41 11 -60 3 -19 8 -43
10 -53 3 -10 7 -32 10 -50 2 -18 6 -43 9 -57 19 -95 25 -130 30 -164 3 -21 7
-48 10 -60 5 -20 13 -60 20 -101 7 -35 14 -66 20 -85 7 -24 -11 -60 -30 -60
-16 0 -32 46 -40 115 -3 28 -10 66 -15 85 -5 19 -11 53 -14 75 -3 22 -14 86
-25 143 -12 56 -23 117 -26 135 -3 17 -13 68 -21 112 -8 44 -19 104 -25 133
-13 73 -27 152 -33 182 -3 14 -7 36 -9 50 -3 14 -12 63 -21 110 -8 47 -18 101
-21 120 -3 19 -8 49 -12 65 -4 17 -7 37 -8 45 -1 8 -4 29 -8 45 -8 34 -19 94
-31 168 -3 21 -10 61 -21 117 -2 14 -6 36 -9 50 -3 14 -7 39 -10 55 -3 17 -8
41 -11 55 -7 37 -15 81 -20 120 -3 19 -10 55 -15 80 -5 25 -12 59 -15 75 -3
17 -7 41 -10 55 -3 14 -7 39 -10 55 -17 124 -42 238 -56 267 -9 16 -45 18 -79
5 -8 -3 -31 -10 -50 -16 -19 -5 -91 -35 -160 -65 -69 -31 -134 -60 -145 -65
-124 -54 -167 -71 -174 -71 -9 0 57 65 128 126 19 16 44 38 57 49 12 11 44 38
70 60 27 22 59 50 72 63 12 12 26 22 29 22 3 0 15 10 27 23 28 30 215 177 226
177 4 0 11 -24 15 -52z m2460 -612 c22 -3 49 -7 60 -9 11 -3 36 -7 55 -11 19
-3 46 -8 60 -11 44 -9 74 -14 125 -20 28 -4 54 -11 59 -16 13 -12 -29 -85 -46
-81 -14 4 -126 47 -173 67 -16 7 -66 27 -110 45 -44 18 -84 36 -90 42 -7 6 -5
7 5 4 8 -3 33 -7 55 -10z m-451 -61 c-16 -25 -76 -121 -133 -213 -57 -92 -113
-183 -126 -202 -12 -19 -37 -59 -54 -87 -18 -29 -37 -51 -42 -48 -4 3 -35 39
-68 79 l-60 73 77 71 c42 39 87 79 98 89 124 106 208 180 273 240 31 28 57 50
60 48 2 -2 -10 -25 -25 -50z m297 4 c162 -64 377 -153 486 -200 24 -11 45 -19
47 -19 2 0 21 -8 42 -17 22 -9 41 -17 44 -18 16 -3 100 -38 100 -42 0 -6 -37
-40 -120 -113 -35 -30 -68 -60 -74 -65 -12 -12 -236 -194 -356 -290 -41 -33
-81 -66 -88 -72 -27 -26 -37 -16 -46 47 -2 19 -7 46 -11 60 -3 14 -8 41 -10
60 -3 19 -11 69 -19 110 -8 41 -17 91 -21 110 -3 19 -8 42 -10 50 -2 8 -6 31
-9 50 -3 19 -11 62 -16 95 -6 33 -13 76 -15 95 -3 19 -9 55 -14 80 -13 59 -22
120 -17 120 2 0 50 -18 107 -41z m-161 -54 c6 -27 13 -57 15 -65 3 -20 18 -94
20 -100 0 -3 5 -27 10 -55 4 -27 10 -57 11 -65 2 -8 6 -28 8 -45 3 -16 7 -39
9 -50 11 -50 20 -103 23 -133 2 -18 5 -41 8 -50 3 -9 8 -30 11 -47 2 -16 7
-41 10 -55 3 -14 10 -45 15 -70 5 -25 12 -56 14 -69 10 -44 -22 -84 -132 -168
-59 -45 -116 -90 -127 -100 -11 -10 -47 -40 -80 -68 -33 -27 -62 -52 -65 -55
-3 -3 -32 -27 -65 -55 -33 -27 -62 -52 -65 -55 -3 -3 -30 -25 -60 -50 -30 -25
-57 -47 -60 -50 -6 -6 -117 -99 -138 -115 -7 -5 -19 -15 -26 -22 -7 -6 -42
-35 -77 -64 -35 -30 -73 -61 -84 -70 -69 -58 -166 -138 -194 -159 -18 -14 -43
-34 -54 -46 -12 -11 -67 -56 -122 -100 -55 -43 -101 -82 -103 -86 -2 -5 -8 -8
-12 -8 -5 0 -23 -13 -41 -30 -18 -16 -35 -28 -37 -26 -2 2 30 56 70 120 40 64
77 125 83 136 5 11 13 20 17 20 5 0 8 4 8 9 0 5 27 51 60 102 34 52 63 102 67
112 3 9 9 17 13 17 4 0 11 11 14 25 4 14 11 25 16 25 6 0 10 7 10 15 0 8 5 15
10 15 6 0 10 5 10 10 0 6 29 56 65 111 36 55 65 102 65 105 0 2 16 27 35 54
19 27 35 52 35 55 0 3 21 38 46 78 26 40 62 96 81 125 19 30 46 75 60 100 14
26 29 49 33 52 3 3 17 23 29 45 13 22 34 56 46 75 49 76 441 712 464 750 13
23 27 38 31 33 4 -4 13 -30 20 -58z m425 -1017 c105 -33 204 -64 220 -70 17
-5 37 -11 45 -13 8 -2 62 -19 120 -38 58 -19 159 -51 225 -71 66 -21 129 -41
140 -45 11 -5 74 -25 140 -45 66 -21 127 -40 135 -43 8 -3 20 -7 25 -8 13 -3
303 -94 335 -105 14 -5 99 -32 190 -60 91 -29 213 -67 272 -86 58 -19 116 -37
127 -39 12 -2 26 -7 31 -10 6 -4 39 -15 73 -25 34 -10 107 -32 162 -50 55 -17
107 -33 115 -35 8 -3 47 -15 85 -28 39 -13 134 -43 213 -67 78 -24 142 -46
142 -49 0 -7 -94 -8 -1330 -17 -1567 -11 -2259 -11 -2263 0 -4 13 1 24 133
241 56 94 110 184 120 200 39 69 231 386 276 458 35 55 53 75 64 71 8 -3 101
-33 205 -66z m-385 -75 c-13 -21 -33 -57 -46 -79 -13 -23 -54 -93 -92 -156
-38 -64 -72 -122 -76 -129 -3 -8 -15 -27 -26 -44 -11 -16 -24 -39 -30 -50 -6
-11 -18 -32 -28 -47 -19 -30 -156 -258 -187 -312 -14 -25 -30 -37 -60 -46 -22
-6 -123 -38 -225 -72 -102 -33 -192 -61 -200 -63 -8 -2 -102 -33 -209 -69
-185 -63 -229 -72 -185 -42 10 8 31 24 45 37 15 13 41 35 59 49 17 14 49 41
70 60 21 19 53 46 70 60 18 14 49 39 69 56 52 46 300 253 351 294 24 19 54 44
66 55 13 11 37 31 55 45 53 41 379 308 444 364 33 28 69 59 80 68 11 9 31 26
44 37 34 30 36 26 11 -16z m-1911 -590 c11 -41 18 -78 27 -133 2 -19 7 -47 10
-62 8 -42 -10 -34 -52 25 -21 28 -44 58 -51 65 -34 35 -34 50 -1 89 29 34 49
52 55 53 1 0 7 -17 12 -37z"/>
<path d="M2517 1903 c-1 -1 -22 -4 -46 -7 -97 -12 -205 -89 -244 -176 -24 -51
-25 -55 -33 -132 -7 -62 9 -165 33 -211 26 -52 87 -109 143 -135 45 -21 72
-26 148 -28 61 -1 110 4 141 14 l48 15 -13 36 c-7 20 -19 35 -26 34 -7 -1 -34
-6 -60 -11 -91 -18 -191 5 -245 57 -63 60 -87 207 -51 305 44 122 181 184 320
146 45 -13 53 -13 53 -1 0 5 3 13 8 17 4 4 7 18 7 30 0 17 -7 25 -25 29 -14 3
-37 8 -52 11 -27 6 -102 11 -106 7z"/>
<path d="M51 1889 c-13 -5 -16 -15 -13 -43 l4 -36 98 0 99 0 -1 -284 c0 -156
3 -289 6 -295 4 -6 27 -11 50 -11 l44 0 0 273 c0 149 1 282 1 295 1 21 4 22
102 22 l100 0 -3 42 -3 42 -233 0 c-128 1 -241 -2 -251 -5z"/>
<path d="M676 1890 c-1 -3 -2 -153 -2 -335 l1 -330 48 -3 c55 -4 49 -24 49
176 l1 132 153 0 c140 0 154 -2 155 -17 0 -10 1 -80 1 -155 l0 -138 49 0 49 0
0 335 c0 361 3 337 -50 337 -49 0 -48 2 -48 -89 0 -49 -1 -110 -1 -138 l-1
-50 -150 0 c-82 0 -151 2 -152 5 0 3 -2 62 -3 133 -1 70 -5 130 -8 133 -7 7
-88 11 -91 4z"/>
<path d="M1407 1892 c-16 -3 -17 -33 -17 -338 l0 -334 192 2 193 3 1 33 c1 21
-4 35 -15 40 -9 5 -73 8 -143 7 l-128 -1 -1 25 c0 14 -1 64 -1 111 l-1 85 129
5 129 5 0 25 c0 54 -4 55 -134 53 -118 -2 -121 -1 -122 20 -2 74 -1 168 3 172
2 2 63 5 136 6 l132 1 0 31 c0 18 -4 37 -8 42 -6 9 -303 15 -345 7z"/>
<path d="M2935 1893 c-67 -12 -61 24 -61 -343 l0 -330 48 0 47 0 3 143 3 142
57 -1 c87 -1 126 -38 142 -131 3 -16 14 -56 24 -88 l18 -60 47 -3 c26 -2 47 1
47 7 0 5 -11 52 -26 103 -14 51 -27 101 -29 112 -5 23 -53 86 -66 86 -18 0 -9
17 16 28 45 21 81 84 84 146 3 82 -33 140 -109 173 -32 14 -194 24 -245 16z
m195 -88 c58 -29 80 -92 52 -151 -21 -46 -64 -67 -143 -69 l-69 -2 0 112 c0
61 3 115 7 119 12 11 125 4 153 -9z"/>
<path d="M3481 1890 c-4 -3 -7 -155 -7 -338 l0 -332 190 2 c176 3 191 4 194
21 2 10 1 28 -2 41 -5 21 -9 21 -146 21 l-140 -1 1 113 1 113 129 0 129 0 0
43 0 42 -127 0 -128 0 -2 98 -2 97 135 0 c73 0 134 3 135 8 6 42 4 64 -4 69
-12 7 -346 10 -356 3z"/>
<path d="M4238 1893 c-28 -3 -38 -9 -38 -22 0 -9 -11 -45 -24 -79 -14 -35 -26
-66 -27 -70 -1 -4 -3 -11 -5 -17 -27 -78 -76 -223 -79 -235 -2 -8 -18 -55 -35
-105 -56 -159 -56 -145 0 -145 54 0 44 -15 101 148 l22 62 111 0 112 0 34
-102 35 -103 44 -3 c24 -2 47 0 51 5 4 4 -19 82 -51 173 -32 91 -61 174 -63
185 -8 33 -98 290 -105 296 -10 11 -44 16 -83 12z m73 -255 c21 -65 39 -121
39 -125 0 -11 -170 -9 -171 3 -2 20 86 274 89 257 2 -10 21 -71 43 -135z"/>
<path d="M4566 1888 c-7 -4 -12 -22 -11 -40 l1 -33 100 -5 99 -5 2 -280 c0
-154 2 -286 2 -292 1 -9 18 -13 49 -13 l47 0 -1 283 c0 155 2 288 4 295 3 8
33 12 103 12 l100 0 -3 40 c-1 22 -4 40 -7 41 -34 5 -476 2 -485 -3z"/>
<path d="M5209 1892 c-14 -3 -16 -39 -16 -337 l1 -335 48 0 48 0 0 335 c0 184
-3 335 -7 336 -33 3 -60 4 -74 1z"/>
<path d="M5440 1890 c-6 -4 16 -84 51 -186 33 -98 62 -186 64 -194 2 -8 23
-76 48 -150 l44 -135 54 0 54 0 26 75 c14 41 28 82 32 90 16 42 99 277 102
293 2 9 7 22 11 29 4 6 20 47 35 92 31 90 29 96 -36 88 l-40 -4 -43 -127 c-24
-69 -45 -133 -47 -141 -2 -8 -4 -16 -5 -17 -2 -2 -3 -6 -4 -10 -1 -5 -10 -33
-21 -63 -10 -30 -20 -59 -21 -65 -1 -5 -9 -29 -18 -53 -8 -23 -15 -44 -16 -47
0 -3 0 -11 -1 -17 0 -15 -17 24 -23 55 -3 12 -16 58 -29 102 -67 216 -120 380
-122 383 -5 6 -86 7 -95 2z"/>
<path d="M6160 1892 l-36 -3 0 -334 0 -334 193 -1 193 -1 -3 43 -2 43 -140 0
-140 0 -1 113 -1 112 128 0 127 0 -1 42 -2 41 -128 1 -127 0 0 98 0 98 135 0
c83 0 135 4 136 10 2 13 2 46 0 63 -1 9 -38 12 -148 12 -82 0 -164 -1 -183 -3z"/>
<path d="M6978 1892 c-13 -3 -15 -45 -15 -337 l1 -335 48 0 48 0 1 83 c0 45 0
112 0 150 l0 67 62 0 c87 1 105 0 114 -1 4 -1 23 -1 41 0 31 1 32 3 32 41 0
45 17 41 -150 43 l-95 2 -3 103 -3 102 136 0 136 0 -3 42 -3 41 -166 1 c-91 1
-172 0 -181 -2z"/>
<path d="M7534 1892 c-20 -3 -21 -6 -20 -337 l0 -335 193 0 193 0 0 39 c0 48
2 47 -162 46 l-127 -1 0 113 1 113 129 0 129 0 0 39 c0 22 -5 41 -12 43 -7 2
-65 3 -129 2 l-116 -1 -2 98 -1 98 137 3 137 3 1 38 c0 20 -2 37 -5 38 -16 2
-328 4 -346 1z"/>
<path d="M8047 1892 c-22 -3 -27 -7 -22 -22 3 -10 8 -27 10 -37 2 -10 18 -72
35 -138 18 -66 36 -139 41 -163 5 -24 11 -47 13 -51 3 -4 7 -18 10 -32 7 -38
35 -150 48 -191 11 -37 13 -38 58 -38 45 0 47 1 59 38 7 20 13 44 15 52 1 8 8
33 14 55 6 22 12 45 13 50 0 6 5 16 11 23 6 6 8 12 5 12 -3 0 -1 15 4 33 6 17
12 39 14 47 42 178 63 236 66 183 1 -27 34 -171 101 -446 l12 -48 49 3 c49 3
50 3 63 48 15 48 115 398 119 415 1 6 4 17 7 25 19 51 48 173 43 178 -7 7 -84
6 -91 -1 -3 -2 -6 -13 -8 -23 -2 -11 -9 -37 -15 -59 -6 -22 -11 -44 -12 -50
-1 -5 -5 -20 -10 -33 -5 -12 -11 -33 -13 -45 -10 -48 -79 -317 -81 -315 -2 2
-5 21 -8 43 -5 34 -43 203 -64 285 -3 14 -7 27 -8 30 0 3 -5 23 -10 45 -4 22
-10 45 -11 50 -2 6 -6 23 -9 40 -3 16 -8 31 -9 33 -6 6 -87 8 -95 2 -5 -3 -37
-113 -71 -245 -34 -132 -65 -251 -69 -264 -5 -18 -13 3 -30 85 -12 60 -33 152
-46 204 -25 98 -33 136 -42 183 -8 39 -23 46 -86 39z"/>
</g>
</svg>
