<?xml version="1.0" standalone="no"?>
<!DOCTYPE svg PUBLIC "-//W3C//DTD SVG 20010904//EN"
 "http://www.w3.org/TR/2001/REC-SVG-20010904/DTD/svg10.dtd">
<svg version="1.0" xmlns="http://www.w3.org/2000/svg"
 width="888.000000pt" height="888.000000pt" viewBox="0 0 888.000000 888.000000"
 preserveAspectRatio="xMidYMid meet">
<metadata>
Created by potrace 1.11, written by Peter Selinger 2001-2013
</metadata>
<g transform="translate(0.000000,888.000000) scale(0.100000,-0.100000)"
fill="#000000" stroke="none">
<path d="M4196 7783 c-2 -3 -29 -6 -60 -8 -30 -2 -73 -7 -94 -10 -22 -3 -57
-7 -78 -10 -39 -4 -188 -30 -231 -40 -13 -3 -31 -7 -40 -9 -148 -34 -449 -129
-467 -146 -9 -9 -34 22 -89 104 -21 32 -61 66 -78 66 -21 0 -41 -24 -44 -53
-2 -12 -6 -39 -9 -60 -8 -51 -18 -129 -19 -145 0 -8 -12 -19 -26 -25 -14 -6
-29 -15 -32 -20 -3 -5 -9 -8 -13 -7 -11 3 -201 -106 -322 -186 -101 -66 -262
-187 -339 -253 -59 -52 -332 -327 -370 -375 -22 -27 -44 -54 -50 -60 -54 -60
-228 -310 -285 -411 -55 -96 -127 -234 -147 -280 -12 -27 -32 -72 -44 -100
-13 -27 -23 -52 -24 -55 -1 -10 -39 -105 -45 -115 -4 -5 -12 -30 -19 -55 -6
-25 -16 -54 -21 -65 -15 -34 -81 -285 -95 -363 -2 -15 -11 -59 -18 -99 -8 -40
-13 -86 -13 -103 1 -16 -1 -30 -4 -30 -3 0 -6 -8 -6 -17 -1 -20 -14 -161 -19
-210 -2 -17 -13 -42 -24 -55 -11 -13 -56 -70 -100 -128 -98 -126 -93 -120
-230 -295 -118 -150 -134 -181 -104 -203 27 -21 89 -8 179 36 85 42 271 122
283 122 4 0 8 -6 9 -12 2 -39 12 -126 15 -143 3 -11 7 -41 11 -66 10 -67 14
-86 41 -209 9 -41 26 -106 37 -144 11 -38 21 -76 23 -85 17 -82 183 -489 225
-551 6 -8 15 -26 21 -40 9 -21 123 -214 169 -285 30 -46 150 -211 177 -242 16
-17 44 -51 63 -74 19 -23 50 -58 67 -78 18 -20 33 -42 33 -50 0 -13 -54 -70
-136 -141 -78 -67 -86 -100 -43 -163 23 -32 99 -128 110 -137 3 -3 38 -52 79
-110 112 -159 144 -185 226 -178 l52 5 12 -46 c37 -145 64 -206 97 -218 15 -6
144 21 168 35 6 4 15 7 20 8 15 3 475 151 507 163 15 6 29 7 32 3 3 -5 28 -14
55 -22 28 -7 51 -17 51 -21 0 -4 15 -11 33 -14 17 -4 37 -10 42 -14 6 -3 12
-6 15 -7 21 -4 67 -18 75 -23 6 -3 12 -6 15 -7 3 0 12 -3 20 -6 26 -10 174
-51 195 -54 11 -2 47 -10 80 -19 33 -8 71 -17 85 -20 14 -3 34 -7 45 -9 11 -2
40 -7 65 -11 25 -3 56 -8 70 -10 38 -6 117 -15 205 -23 153 -13 647 -4 674 12
3 3 37 7 75 11 38 3 72 7 75 9 5 4 43 11 111 21 65 10 282 69 402 109 211 70
423 165 633 286 l40 22 1000 4 c550 2 1011 5 1025 8 14 2 28 5 32 5 19 2 28
42 16 65 -12 22 -183 203 -554 583 -271 277 -423 443 -405 443 6 0 11 6 11 14
0 8 6 21 13 28 19 21 32 45 84 148 26 52 51 97 54 100 17 15 140 322 183 458
25 77 79 286 89 342 23 122 27 150 32 183 3 20 7 52 10 70 27 193 27 692 0
827 -3 14 -7 45 -11 70 -5 45 -20 137 -28 175 -26 123 -38 173 -56 236 -12 41
-22 80 -23 87 0 6 -3 12 -7 12 -4 0 -7 6 -7 13 0 13 -37 132 -54 172 -81 194
-106 249 -132 300 -17 33 -32 66 -33 73 -1 8 -10 22 -18 31 -9 10 -16 21 -16
24 0 8 -130 228 -140 237 -10 10 -70 98 -70 104 0 3 -8 14 -17 24 -10 11 -27
32 -38 47 -49 69 -141 179 -211 252 -28 29 -49 53 -48 53 2 0 -35 37 -82 82
-53 52 -83 87 -80 97 3 9 8 48 11 86 11 115 15 149 19 170 9 41 20 140 17 150
-1 5 -3 18 -4 28 -1 10 -9 25 -19 34 -17 15 -20 15 -45 -3 -15 -11 -30 -27
-34 -35 -4 -7 -36 -74 -70 -146 -35 -73 -67 -133 -72 -133 -8 0 -94 61 -147
103 -8 7 -71 47 -140 89 -69 43 -130 82 -137 88 -7 5 -15 10 -19 10 -4 0 -51
22 -103 49 -196 100 -533 228 -680 257 -12 3 -53 12 -90 20 -88 21 -99 23
-145 29 -21 3 -41 7 -45 9 -3 2 -33 7 -65 10 -33 4 -73 9 -90 11 -17 3 -51 8
-76 11 -54 7 -558 13 -564 7z m2405 -746 c-6 -8 -8 -17 -4 -20 3 -4 1 -7 -5
-7 -15 0 -15 13 0 28 16 16 23 15 9 -1z m-5538 -2677 c-16 -14 -44 -37 -61
-53 -48 -41 -39 -16 23 60 30 37 56 73 56 78 1 6 4 -6 6 -25 4 -29 0 -39 -24
-60z m32 -105 c0 -21 -9 -30 -52 -50 -75 -34 -71 -25 30 71 16 16 23 10 22
-21z m5750 -2224 c11 -1 213 -65 360 -114 49 -16 96 -31 105 -32 8 -2 15 -4
15 -5 0 -1 7 -3 16 -5 9 -1 43 -12 75 -23 54 -19 259 -84 277 -88 4 -1 8 -2
10 -4 1 -1 9 -3 17 -5 47 -12 203 -64 195 -65 -12 -2 -624 -10 -707 -10 -32 0
-64 0 -70 0 -7 0 -190 -1 -405 -3 -216 -3 -393 -2 -393 2 0 3 12 14 28 23 52
33 67 43 72 48 3 3 39 32 80 64 41 33 82 67 91 75 9 9 26 24 37 33 12 10 48
42 81 73 51 46 64 53 83 46 13 -5 28 -9 33 -10z m-4810 -111 c3 -14 12 -65 20
-115 8 -49 17 -101 20 -115 l5 -25 -21 25 c-11 14 -32 37 -45 52 -13 15 -24
31 -24 34 0 4 -14 23 -30 43 -47 55 -47 55 -42 71 4 12 40 55 82 98 12 13 15
11 22 -14 5 -16 11 -40 13 -54z m157 36 c17 -19 33 -43 34 -53 7 -48 37 -195
52 -255 13 -53 14 -72 4 -92 -27 -59 -68 -4 -76 103 -3 31 -7 63 -10 71 -3 8
-8 33 -11 55 -7 45 -13 70 -15 70 -1 0 -3 11 -5 25 -1 14 -6 44 -10 68 -4 23
-4 42 -1 42 4 0 21 -15 38 -34z m228 -187 c48 -35 97 -72 110 -82 65 -46 66
-33 -3 -138 -34 -53 -75 -117 -91 -143 -29 -46 -42 -57 -43 -33 -1 21 -12 90
-23 147 -6 30 -13 71 -16 90 -2 19 -7 46 -10 60 -11 50 -15 70 -29 149 -5 27
-3 32 7 24 7 -6 51 -39 98 -74z m298 -237 c-29 -20 -52 -39 -91 -74 -33 -29
-47 -35 -47 -18 0 6 4 10 9 10 5 0 11 8 14 18 7 21 36 69 61 98 l19 23 29 -20
29 -21 -23 -16z m206 -78 c34 -20 36 -23 20 -32 -16 -7 -60 -22 -84 -26 -3 -1
-9 -4 -15 -7 -5 -4 -26 -10 -45 -14 -19 -4 -41 -11 -50 -16 -27 -14 -108 -37
-113 -32 -3 3 20 26 51 51 31 25 59 49 60 54 2 4 8 8 12 8 5 0 23 13 41 29 35
32 38 32 123 -15z"/>
</g>
</svg>
