<?xml version="1.0" encoding="utf-8"?>
<!-- Generator: Adobe Illustrator 15.0.2, SVG Export Plug-In . SVG Version: 6.00 Build 0)  -->
<!DOCTYPE svg PUBLIC "-//W3C//DTD SVG 1.1//EN" "http://www.w3.org/Graphics/SVG/1.1/DTD/svg11.dtd">
<svg version="1.1" id="Layer_1" xmlns="http://www.w3.org/2000/svg" xmlns:xlink="http://www.w3.org/1999/xlink" x="0px" y="0px"
	 width="443.52px" height="443.52px" viewBox="0 -52.92 443.52 443.52" enable-background="new 0 -52.92 443.52 443.52"
	 xml:space="preserve">
<pattern  x="-11.74" y="493.34" width="54" height="54" patternUnits="userSpaceOnUse" id="SVGID_1_" viewBox="0 -54 54 54" overflow="visible">
	<g>
		<polygon fill="none" points="0,0 54,0 54,-54 0,-54 		"/>
		<g>
			<polygon fill="none" points="0,-54 54,-54 54,0 0,0 			"/>
			<polygon fill="#6B6B6B" points="54,-54 0,-54 0,0 54,0 			"/>
		</g>
	</g>
</pattern>
<pattern  x="-11.74" y="493.34" width="54" height="54" patternUnits="userSpaceOnUse" id="SVGID_10_" viewBox="0 -54 54 54" overflow="visible">
	<g>
		<polygon fill="none" points="0,0 54,0 54,-54 0,-54 		"/>
		<g>
			<polygon fill="none" points="0,-54 54,-54 54,0 0,0 			"/>
			<polygon fill="#6B6B6B" points="54,-54 0,-54 0,0 54,0 			"/>
		</g>
	</g>
</pattern>
<pattern  x="-11.74" y="493.34" width="54" height="54" patternUnits="userSpaceOnUse" id="SVGID_11_" viewBox="0 -54 54 54" overflow="visible">
	<g>
		<polygon fill="none" points="0,0 54,0 54,-54 0,-54 		"/>
		<g>
			<polygon fill="none" points="0,-54 54,-54 54,0 0,0 			"/>
			<polygon fill="#6B6B6B" points="54,-54 0,-54 0,0 54,0 			"/>
		</g>
	</g>
</pattern>
<pattern  x="-11.74" y="493.34" width="54" height="54" patternUnits="userSpaceOnUse" id="SVGID_12_" viewBox="0 -54 54 54" overflow="visible">
	<g>
		<polygon fill="none" points="0,0 54,0 54,-54 0,-54 		"/>
		<g>
			<polygon fill="none" points="0,-54 54,-54 54,0 0,0 			"/>
			<polygon fill="#6B6B6B" points="54,-54 0,-54 0,0 54,0 			"/>
		</g>
	</g>
</pattern>
<pattern  x="-11.74" y="493.34" width="54" height="54" patternUnits="userSpaceOnUse" id="SVGID_13_" viewBox="0 -54 54 54" overflow="visible">
	<g>
		<polygon fill="none" points="0,0 54,0 54,-54 0,-54 		"/>
		<g>
			<polygon fill="none" points="0,-54 54,-54 54,0 0,0 			"/>
			<polygon fill="#6B6B6B" points="54,-54 0,-54 0,0 54,0 			"/>
		</g>
	</g>
</pattern>
<pattern  x="-11.74" y="493.34" width="54" height="54" patternUnits="userSpaceOnUse" id="SVGID_14_" viewBox="0 -54 54 54" overflow="visible">
	<g>
		<polygon fill="none" points="0,0 54,0 54,-54 0,-54 		"/>
		<g>
			<polygon fill="none" points="0,-54 54,-54 54,0 0,0 			"/>
			<polygon fill="#6B6B6B" points="54,-54 0,-54 0,0 54,0 			"/>
		</g>
	</g>
</pattern>
<pattern  x="-11.74" y="493.34" width="54" height="54" patternUnits="userSpaceOnUse" id="SVGID_2_" viewBox="0 -54 54 54" overflow="visible">
	<g>
		<polygon fill="none" points="0,0 54,0 54,-54 0,-54 		"/>
		<g>
			<polygon fill="none" points="0,-54 54,-54 54,0 0,0 			"/>
			<polygon fill="#6B6B6B" points="54,-54 0,-54 0,0 54,0 			"/>
		</g>
	</g>
</pattern>
<pattern  x="-11.74" y="493.34" width="54" height="54" patternUnits="userSpaceOnUse" id="SVGID_3_" viewBox="0 -54 54 54" overflow="visible">
	<g>
		<polygon fill="none" points="0,0 54,0 54,-54 0,-54 		"/>
		<g>
			<polygon fill="none" points="0,-54 54,-54 54,0 0,0 			"/>
			<polygon fill="#6B6B6B" points="54,-54 0,-54 0,0 54,0 			"/>
		</g>
	</g>
</pattern>
<pattern  x="-11.74" y="493.34" width="54" height="54" patternUnits="userSpaceOnUse" id="SVGID_4_" viewBox="0 -54 54 54" overflow="visible">
	<g>
		<polygon fill="none" points="0,0 54,0 54,-54 0,-54 		"/>
		<g>
			<polygon fill="none" points="0,-54 54,-54 54,0 0,0 			"/>
			<polygon fill="#6B6B6B" points="54,-54 0,-54 0,0 54,0 			"/>
		</g>
	</g>
</pattern>
<pattern  x="-11.74" y="493.34" width="54" height="54" patternUnits="userSpaceOnUse" id="SVGID_5_" viewBox="0 -54 54 54" overflow="visible">
	<g>
		<polygon fill="none" points="0,0 54,0 54,-54 0,-54 		"/>
		<g>
			<polygon fill="none" points="0,-54 54,-54 54,0 0,0 			"/>
			<polygon fill="#6B6B6B" points="54,-54 0,-54 0,0 54,0 			"/>
		</g>
	</g>
</pattern>
<pattern  x="-11.74" y="493.34" width="54" height="54" patternUnits="userSpaceOnUse" id="SVGID_6_" viewBox="0 -54 54 54" overflow="visible">
	<g>
		<polygon fill="none" points="0,0 54,0 54,-54 0,-54 		"/>
		<g>
			<polygon fill="none" points="0,-54 54,-54 54,0 0,0 			"/>
			<polygon fill="#6B6B6B" points="54,-54 0,-54 0,0 54,0 			"/>
		</g>
	</g>
</pattern>
<pattern  x="-11.74" y="493.34" width="54" height="54" patternUnits="userSpaceOnUse" id="SVGID_7_" viewBox="0 -54 54 54" overflow="visible">
	<g>
		<polygon fill="none" points="0,0 54,0 54,-54 0,-54 		"/>
		<g>
			<polygon fill="none" points="0,-54 54,-54 54,0 0,0 			"/>
			<polygon fill="#6B6B6B" points="54,-54 0,-54 0,0 54,0 			"/>
		</g>
	</g>
</pattern>
<pattern  x="-11.74" y="493.34" width="54" height="54" patternUnits="userSpaceOnUse" id="SVGID_8_" viewBox="0 -54 54 54" overflow="visible">
	<g>
		<polygon fill="none" points="0,0 54,0 54,-54 0,-54 		"/>
		<g>
			<polygon fill="none" points="0,-54 54,-54 54,0 0,0 			"/>
			<polygon fill="#6B6B6B" points="54,-54 0,-54 0,0 54,0 			"/>
		</g>
	</g>
</pattern>
<pattern  x="-11.74" y="493.34" width="54" height="54" patternUnits="userSpaceOnUse" id="SVGID_9_" viewBox="0 -54 54 54" overflow="visible">
	<g>
		<polygon fill="none" points="0,0 54,0 54,-54 0,-54 		"/>
		<g>
			<polygon fill="none" points="0,-54 54,-54 54,0 0,0 			"/>
			<polygon fill="#6B6B6B" points="54,-54 0,-54 0,0 54,0 			"/>
		</g>
	</g>
</pattern>
<circle fill="#FFFFFF" cx="221.76" cy="168.84" r="218.341"/>
<polygon fill="#8CC640" points="304.611,191.031 436.737,329.785 218.445,261.293 "/>
<polygon fill="#8CC640" points="142.254,-14.848 191.102,195.562 203.618,187.419 256.85,194.935 273.761,157.364 "/>
<path fill="#333333" d="M274.733,153.17c23.986-49.112,47.576-99.931,72.327-149.145c1.357-2.692,2.081-8.273,6.747-7.871
	c2.966,3.785,0.798,8.79,0.367,12.736c-6.899,62.9-13.832,126.632-20.601,190.739c-0.46,4.496-2.134,10.277-1.498,13.492
	c0.806,4.138,10.226,11.727,13.86,15.361c24.558,24.554,45.435,49.172,70.445,74.203c6.423,6.41,13.96,14.318,21.366,22.103
	c2.16,2.283,6.422,5.771,5.25,8.251c-1.781,3.709-26.013,1.878-31.859,1.878c-67.769,0-131.967,1.104-199.353,1.104
	c-11.332,0-23.325-1.361-33.353,0c-5.935,0.824-12.586,4.224-19.119,6.374c-16.445,5.451-30.109,9.589-47.962,15.373
	c-8.703,2.812-10.222,3.745-12.738-5.244c-0.918-3.314-1.504-4.752-2.243-8.632c-9.299,4.396-14.312-7.724-18.36-13.102
	c-1.735-2.308-3.684-4.15-5.62-6.754c-1.557-2.11-4.838-6.053-4.867-7.489c-0.113-5.588,11.475-9.842,12.363-14.98
	c0.564-3.242-1.914-11.898-2.623-16.117c-6.062-36.088-13.599-74.669-19.112-110.171c-13.856,4.984-28.991,11.41-43.475,17.608
	c-4.382,1.887-9.291,5.968-14.24,3.76c-0.835-4.055,3.06-6.897,5.243-9.751c13.427-17.551,27.099-34.954,41.226-53.21
	c2-2.59,4.84-8.134,7.116-8.62c2.099-0.45,7.244,1.679,9.741,2.245c7.379,1.691,12.07,2.854,19.487,4.497
	c3.358,0.747,7.294,0.722,9.746,1.873c3.275,1.542,8.083,9.713,10.487,12.742c3.697,4.647,7.098,8.859,10.487,12.362
	c8.682-59.778,16.181-120.728,25.478-179.87c3.88-3.914,7.99,5.116,10.87,8.992C190.682,42.257,235.097,100.327,274.733,153.17z
	 M191.918,191.763c4.866-0.732,6.88-8.254,12.365-9c2.98-0.396,8.5,1.487,12.746,2.25c12.924,2.326,27.328,5.009,38.599,7.121
	c5.32-10.787,10.634-21.583,15.738-32.608C230.061,103.397,188.242,47.788,146.201-7.6
	C161.32,58.974,176.958,125.042,191.918,191.763z M136.463,38.873c-4.853,35.46-9.922,69.811-14.624,105.3
	c-0.635,4.816-3.515,17.181-2.616,21.356c0.396,1.879,3.463,4.506,5.244,6.748c12.975,16.336,24.696,31.658,37.474,46.47
	c9.047-7.945,18.459-15.509,26.977-23.985c-15.917-65.904-30.215-133.418-46.465-198.984
	C141.046,9.664,138.517,23.834,136.463,38.873z M255.628,206.01c5.378,2.349,10.821,4.668,16.483,6.745
	c8.026-6.273,15.884-12.976,23.986-19.871c1.793-1.522,6.44-6.186,8.99-5.993c2.183,0.185,3.762,3.197,5.627,5.25
	c3.827,4.227,7.211,7.211,10.864,10.869c1.667,1.655,3.089,4.573,5.256,4.119c6.395-63.556,14.504-127.386,20.233-190.368
	C316.883,80.135,285.952,142.776,255.628,206.01z M55.897,131.437c-12.477,15.88-24.716,32-37.107,47.96
	c10.802-8.92,22.356-18.301,33.353-27.73c3.634-3.12,7.336-7.878,11.247-9.366c7.04-2.681,15.056-1.156,23.229-3.754
	C76.504,136.051,66.113,133.825,55.897,131.437z M91.863,141.929c-8.375,1.356-17.031,2.447-25.48,3.754
	c11.886,67.919,25.001,134.638,37.098,202.344c22.965-35.492,45.083-71.826,67.075-108.297
	C144.39,207.078,118.733,173.891,91.863,141.929z M40.901,165.906c-7.344,6.244-14.9,12.536-20.979,18.734
	c0.019-0.233,0.055-0.44,0.371-0.371c6.816-3.011,13.68-5.7,20.608-8.633c6.671-2.813,13.373-7,20.986-7.492
	c2.64,6.514,3.269,13.718,4.491,20.61c8.173,46.053,17.141,93.685,25.479,139.019c0.611,3.34,0.346,7.305,2.626,10.117
	c4.74-0.748,1.662-6.851,1.114-9.749c-11.157-59.678-21.967-121.063-32.97-179.859C55.507,153.302,48.208,159.698,40.901,165.906z
	 M250.01,203.76c0.703-2.101,2.936-4.457,2.607-6.372c-10.267-1.222-20.675-4.298-30.346-4.864
	C231.727,196.051,240.678,200.089,250.01,203.76z M165.684,223.99c3.055,3.559,5.659,7.575,8.994,10.872
	c8.168-13.698,16.669-27.058,25.104-40.478c0.088-0.465,0.587-0.759-0.372-0.741C188.595,204.181,176.266,213.208,165.684,223.99z
	 M221.141,254.724c14.6-11.647,31.056-24.669,45.345-37.85c-18.947-7.415-37.127-15.585-56.203-22.863
	C213.743,214.411,217.343,234.672,221.141,254.724z M304.339,194.017c-26.882,22.335-54.212,44.219-80.564,67.081
	c69.185,21.366,137.562,43.552,206.471,65.201C389.627,282.34,346.418,237.731,304.339,194.017z M113.603,343.54
	c1.15,0.516,1.961-0.972,2.614-1.513c29.971-24.03,59.042-48.452,88.438-73.439c3.528-3.015,12.077-7.914,12.746-11.261
	c0.571-2.836-1.824-10.78-2.628-15.361c-2.555-14.537-6.032-35.626-8.992-46.453C175.241,245.034,144.527,294.387,113.603,343.54z
	 M200.167,297.812c-5.004,8.264-9.977,16.454-14.617,24.351c-1.633,2.799-3.895,5.623-3.751,7.883
	c81.088-0.356,162.421-0.479,242.83-1.511c-68.154-21.292-135.81-43.062-203.854-64.453
	C213.76,274.518,207.052,286.43,200.167,297.812z M162.691,310.926c-14.692,12.193-29.631,24.778-43.845,36.727
	c-0.583,0.491-2.131,1.033-1.872,2.248c19.587-6.396,38.89-13.063,58.832-19.106c11.781-19.707,23.798-39.17,35.226-59.223
	c0.395,0,0.294-0.478-0.378-0.367C195.523,284.624,178.755,297.591,162.691,310.926z M75.006,317.286
	c3.202,4.304,6.425,8.558,9.735,12.759c-1.146-6.729-1.75-13.987-3.737-19.869C79.096,312.645,76.606,314.536,75.006,317.286z"/>
<g>
	<pattern  id="SVGID_15_" xlink:href="#SVGID_1_" patternTransform="matrix(1.3182 0 0 -1.3182 4781.54 -22346.1406)">
	</pattern>
	<path fill="#333333" stroke="url(#SVGID_15_)" stroke-width="0.5616" stroke-miterlimit="10" d="M-5.828,427.403h-10.057v-3.621
		H8.599v3.621H-1.505v29.433h-4.322V427.403L-5.828,427.403z"/>
	<pattern  id="SVGID_16_" xlink:href="#SVGID_2_" patternTransform="matrix(1.3182 0 0 -1.3182 4781.54 -22346.1406)">
	</pattern>
	<path fill="#333333" stroke="url(#SVGID_16_)" stroke-width="0.5616" stroke-miterlimit="10" d="M20.229,423.781v13.833h15.993
		v-13.833h4.312v33.054h-4.307v-15.5H20.229v15.5h-4.312v-33.054H20.229z"/>
	<pattern  id="SVGID_17_" xlink:href="#SVGID_3_" patternTransform="matrix(1.3182 0 0 -1.3182 4781.54 -22346.1406)">
	</pattern>
	<path fill="#333333" stroke="url(#SVGID_17_)" stroke-width="0.5616" stroke-miterlimit="10" d="M68.715,441.335h-12.8v11.926
		h14.327v3.574H51.593v-33.054H69.5v3.574H55.91v10.453h12.8v3.525L68.715,441.335L68.715,441.335z"/>
	<pattern  id="SVGID_18_" xlink:href="#SVGID_4_" patternTransform="matrix(1.3182 0 0 -1.3182 4781.54 -22346.1406)">
	</pattern>
	<path fill="#333333" stroke="url(#SVGID_18_)" stroke-width="0.5616" stroke-miterlimit="10" d="M116.611,455.81
		c-1.521,0.784-4.711,1.568-8.734,1.568c-9.319,0-16.285-5.872-16.285-16.779c0-10.395,7.014-17.359,17.264-17.359
		c4.071,0,6.718,0.881,7.85,1.474l-1.078,3.47c-1.568-0.785-3.875-1.375-6.624-1.375c-7.751,0-12.899,4.961-12.899,13.641
		c0,8.144,4.66,13.285,12.657,13.285c2.654,0,5.298-0.53,7.015-1.363L116.611,455.81z"/>
	<pattern  id="SVGID_19_" xlink:href="#SVGID_5_" patternTransform="matrix(1.3182 0 0 -1.3182 4781.54 -22346.1406)">
	</pattern>
	<path fill="#333333" stroke="url(#SVGID_19_)" stroke-width="0.5616" stroke-miterlimit="10" d="M125.689,424.216
		c2.158-0.387,5.3-0.688,8.197-0.688c4.563,0,7.554,0.881,9.562,2.703c1.62,1.474,2.599,3.725,2.599,6.325
		c0,4.312-2.746,7.209-6.181,8.393v0.145c2.501,0.882,4.022,3.229,4.807,6.671c1.081,4.61,1.865,7.804,2.554,9.071h-4.415
		c-0.537-0.979-1.271-3.768-2.155-7.896c-0.983-4.563-2.801-6.278-6.676-6.423h-4.023v14.317h-4.268L125.689,424.216
		L125.689,424.216z M129.964,439.281h4.369c4.561,0,7.452-2.511,7.452-6.289c0-4.263-3.091-6.12-7.603-6.12
		c-2.059,0-3.479,0.145-4.219,0.338L129.964,439.281L129.964,439.281z"/>
	<pattern  id="SVGID_20_" xlink:href="#SVGID_6_" patternTransform="matrix(1.3182 0 0 -1.3182 4781.54 -22346.1406)">
	</pattern>
	<path fill="#333333" stroke="url(#SVGID_20_)" stroke-width="0.5616" stroke-miterlimit="10" d="M172.848,441.335h-12.809v11.926
		h14.327v3.574h-18.639v-33.054h17.906v3.574h-13.594v10.453h12.809V441.335z"/>
	<pattern  id="SVGID_21_" xlink:href="#SVGID_7_" patternTransform="matrix(1.3182 0 0 -1.3182 4781.54 -22346.1406)">
	</pattern>
	<path fill="#333333" stroke="url(#SVGID_21_)" stroke-width="0.5616" stroke-miterlimit="10" d="M188.948,446.441l-3.438,10.395
		h-4.413l11.285-33.054h5.1l11.289,33.054h-4.564l-3.534-10.395H188.948z M199.837,443.108l-3.286-9.523
		c-0.737-2.16-1.226-4.117-1.715-6.035h-0.096c-0.489,1.918-0.983,3.971-1.669,5.986l-3.233,9.572H199.837z"/>
	<pattern  id="SVGID_22_" xlink:href="#SVGID_8_" patternTransform="matrix(1.3182 0 0 -1.3182 4781.54 -22346.1406)">
	</pattern>
	<path fill="#333333" stroke="url(#SVGID_22_)" stroke-width="0.5616" stroke-miterlimit="10" d="M219.808,427.403h-10.05v-3.621
		h24.477v3.621h-10.105v29.433h-4.321V427.403z"/>
	<pattern  id="SVGID_23_" xlink:href="#SVGID_9_" patternTransform="matrix(1.3182 0 0 -1.3182 4781.54 -22346.1406)">
	</pattern>
	<path fill="#333333" stroke="url(#SVGID_23_)" stroke-width="0.5616" stroke-miterlimit="10" d="M245.869,423.781v33.054h-4.311
		v-33.054H245.869z"/>
	<pattern  id="SVGID_24_" xlink:href="#SVGID_10_" patternTransform="matrix(1.3182 0 0 -1.3182 4781.54 -22346.1406)">
	</pattern>
	<path fill="#333333" stroke="url(#SVGID_24_)" stroke-width="0.5616" stroke-miterlimit="10" d="M264.275,456.835l-10.845-33.054
		h4.665l5.154,16.284c1.367,4.467,2.594,8.488,3.527,12.362h0.1c0.927-3.827,2.254-8.003,3.775-12.313l5.59-16.333h4.561
		l-11.819,33.054H264.275L264.275,456.835z"/>
	<pattern  id="SVGID_25_" xlink:href="#SVGID_11_" patternTransform="matrix(1.3182 0 0 -1.3182 4781.54 -22346.1406)">
	</pattern>
	<path fill="#333333" stroke="url(#SVGID_25_)" stroke-width="0.5616" stroke-miterlimit="10" d="M305.149,441.335h-12.8v11.926
		h14.326v3.574h-18.647v-33.054h17.904v3.574h-13.589v10.453h12.8v3.525L305.149,441.335L305.149,441.335z"/>
	<pattern  id="SVGID_26_" xlink:href="#SVGID_12_" patternTransform="matrix(1.3182 0 0 -1.3182 4781.54 -22346.1406)">
	</pattern>
	<path fill="#333333" stroke="url(#SVGID_26_)" stroke-width="0.5616" stroke-miterlimit="10" d="M329.942,423.781h17.806v3.574
		H334.26v10.984h12.457v3.537H334.26v14.957h-4.316L329.942,423.781L329.942,423.781z"/>
	<pattern  id="SVGID_27_" xlink:href="#SVGID_13_" patternTransform="matrix(1.3182 0 0 -1.3182 4781.54 -22346.1406)">
	</pattern>
	<path fill="#333333" stroke="url(#SVGID_27_)" stroke-width="0.5616" stroke-miterlimit="10" d="M374.643,441.335h-12.811v11.926
		h14.322v3.574h-18.639v-33.054h17.908v3.574h-13.592v10.453h12.809v3.526H374.643z"/>
	<pattern  id="SVGID_28_" xlink:href="#SVGID_14_" patternTransform="matrix(1.3182 0 0 -1.3182 4781.54 -22346.1406)">
	</pattern>
	<path fill="#333333" stroke="url(#SVGID_28_)" stroke-width="0.5616" stroke-miterlimit="10" d="M391.232,456.835l-8.389-33.054
		h4.508l3.93,16.721c0.979,4.129,1.865,8.245,2.445,11.433h0.104c0.543-3.284,1.568-7.208,2.709-11.476l4.406-16.672h4.473
		l4.016,16.77c0.936,3.94,1.822,7.853,2.305,11.336h0.104c0.684-3.635,1.617-7.305,2.645-11.434l4.371-16.672h4.363l-9.369,33.06
		h-4.473l-4.17-17.215c-1.033-4.219-1.715-7.461-2.162-10.792h-0.096c-0.545,3.284-1.328,6.53-2.549,10.792l-4.719,17.215h-4.449
		v-0.012H391.232z"/>
</g>
</svg>
